<?xml version="1.0" encoding="UTF-8"?>
<svg width="801px" height="399px" viewBox="0 0 801 399" version="1.1" xmlns="http://www.w3.org/2000/svg" xmlns:xlink="http://www.w3.org/1999/xlink">
    <!-- Generator: Sketch 55 (78076) - https://sketchapp.com -->
    <title>Group</title>
    <desc>Created with Sketch.</desc>
    <defs>
        <rect id="path-1" x="0.566006398" y="0.276007815" width="190" height="206.483791"></rect>
    </defs>
    <g id="Page-1" stroke="none" stroke-width="1" fill="none" fill-rule="evenodd">
        <g id="Group" transform="translate(0.000000, 0.000000)">
            <polygon id="Fill-1" fill="#25CCED" points="0 399.002494 800 399.002494 800 0 0 0"></polygon>
            <polygon id="Fill-2" fill="#00E6C2" points="0 398.488514 800 398.488514 800 198.987268 0 198.987268"></polygon>
            <path d="M494.906923,113.02491 C495.727965,109.241934 499.099266,106.408323 503.137454,106.408323 C503.80099,106.408323 504.442185,106.491894 505.062156,106.63675 C506.573544,102.068207 510.880945,98.7665989 515.968057,98.7665989 C520.792658,98.7665989 524.91686,101.737266 526.619266,105.94144 C527.832398,105.267301 529.226495,104.879532 530.714425,104.879532 C535.366998,104.879532 539.140442,108.642452 539.140442,113.284537 C539.140442,113.291223 539.139325,113.297908 539.139325,113.30348 C542.540786,115.050669 544.884387,118.584047 544.884387,122.644479 C544.884387,128.423128 540.144683,133.151013 534.352704,133.151013 L499.116022,133.151013 C493.322926,133.151013 488.583221,128.423128 488.583221,122.644479 C488.583221,118.357848 491.194918,114.653986 494.906923,113.02491" id="Fill-3" fill="#FFFFFF"></path>
            <path d="M494.906923,113.02491 L494.918094,113.02491 L494.906923,113.02491 Z M503.137454,108.079741 C499.983981,108.079741 497.211427,110.308298 496.54454,113.378136 C496.430599,113.901847 496.073138,114.339759 495.58163,114.554815 C492.347728,115.973292 490.258818,119.148986 490.258818,122.644479 C490.258818,127.516106 494.232216,131.479595 499.116022,131.479595 L534.352704,131.479595 C539.236509,131.479595 543.208791,127.516106 543.208791,122.644479 C543.208791,119.332842 541.355581,116.322061 538.371902,114.788813 C537.813369,114.502444 537.463728,113.929704 537.463728,113.30348 C537.463728,113.285651 537.463728,113.266709 537.464845,113.247766 C537.444738,109.551703 534.424196,106.55095 530.714425,106.55095 C529.569434,106.55095 528.435613,106.84512 527.434723,107.401145 C527.015824,107.636258 526.516496,107.678601 526.061851,107.518144 C525.607206,107.358803 525.245277,107.012262 525.06543,106.567665 C523.557393,102.843745 519.987255,100.438017 515.968057,100.438017 C511.72768,100.438017 507.98328,103.139029 506.653973,107.160461 C506.380292,107.982799 505.526855,108.457481 504.681237,108.264711 C504.146163,108.139912 503.64125,108.079741 503.137454,108.079741 L503.137454,108.079741 Z M534.352704,134.822431 L499.116022,134.822431 C492.383474,134.822431 486.907624,129.359123 486.907624,122.644479 C486.907624,118.10045 489.462351,113.950876 493.483783,111.853803 C494.852187,107.416745 499.195334,104.345793 503.99536,104.77479 C506.115548,100.128248 510.761419,97.0951808 515.968057,97.0951808 C520.777019,97.0951808 525.107878,99.6624791 527.422436,103.759682 C528.479179,103.396427 529.592892,103.208114 530.714425,103.208114 C535.95234,103.208114 540.272028,107.206146 540.769122,112.303972 C544.363835,114.525844 546.559984,118.404648 546.559984,122.644479 C546.559984,129.359123 541.084134,134.822431 534.352704,134.822431 L534.352704,134.822431 Z" id="Fill-5" fill="#000000"></path>
            <path d="M306.106607,121.734559 C305.192848,117.525928 301.441746,114.371405 296.95003,114.371405 C296.21165,114.371405 295.496729,114.466118 294.808617,114.626574 C293.126318,109.543235 288.334111,105.870572 282.672829,105.870572 C277.305334,105.870572 272.71755,109.175523 270.823009,113.853265 C269.473595,113.102241 267.921992,112.671015 266.26762,112.671015 C261.090026,112.671015 256.892098,116.858475 256.892098,122.023157 C256.892098,122.029843 256.893215,122.036528 256.893215,122.044328 C253.109717,123.98763 250.501372,127.91992 250.501372,132.437206 C250.501372,138.866595 255.773916,144.127105 262.219378,144.127105 L301.423873,144.127105 C307.869335,144.127105 313.142996,138.866595 313.142996,132.437206 C313.142996,127.668093 310.236394,123.546376 306.106607,121.734559" id="Fill-7" fill="#FFFFFF"></path>
            <path d="M258.568141,121.988169 C258.569258,122.008226 258.569258,122.027168 258.569258,122.043882 C258.569258,122.670107 258.219617,123.242846 257.661085,123.53033 C254.277497,125.267491 252.176298,128.680527 252.176298,132.436761 C252.176298,137.961355 256.682536,142.455241 262.219825,142.455241 L301.423203,142.455241 C306.961608,142.455241 311.466729,137.961355 311.466729,132.436761 C311.466729,128.473271 309.097435,124.873036 305.432347,123.265132 C304.940839,123.048962 304.582261,122.612165 304.469437,122.088454 C303.707599,118.585161 300.54519,116.043491 296.949359,116.043491 C296.381891,116.043491 295.788729,116.113691 295.189983,116.25409 C294.341014,116.451317 293.488694,115.972177 293.217247,115.14984 C291.711444,110.599125 287.474419,107.541544 282.673275,107.541544 C278.125706,107.541544 274.084167,110.264842 272.376175,114.479044 C272.196328,114.923641 271.834399,115.270182 271.380871,115.429524 C270.926226,115.588866 270.425781,115.546523 270.006881,115.312524 C268.866359,114.6785 267.572798,114.343102 266.268067,114.343102 C262.034392,114.343102 258.587131,117.769509 258.568141,121.988169 M301.423203,145.798077 L262.219825,145.798077 C254.833795,145.798077 248.825105,139.804372 248.825105,132.436761 C248.825105,127.753447 251.267008,123.472388 255.260513,121.04326 C255.758724,115.421724 260.505131,111.000266 266.268067,111.000266 C267.545988,111.000266 268.818325,111.224236 270.016935,111.656576 C272.540384,107.075776 277.339293,104.198708 282.673275,104.198708 C288.436211,104.198708 293.575825,107.582773 295.878095,112.755255 C301.214312,112.219287 306.050084,115.626751 307.532428,120.561892 C311.98393,122.85062 314.817923,127.424735 314.817923,132.436761 C314.817923,139.804372 308.81035,145.798077 301.423203,145.798077" id="Fill-9" fill="#000000"></path>
            <path d="M147.223177,99.9167575 C146.740605,99.9167575 146.273672,99.9780428 145.823495,100.082785 C144.723186,96.76112 141.592055,94.3598493 137.892337,94.3598493 C134.383638,94.3598493 131.385436,96.5204358 130.147729,99.5769025 C129.265248,99.0877341 128.252071,98.8058216 127.169635,98.8058216 C123.787164,98.8058216 121.043654,101.541376 121.043654,104.916526 C118.570473,106.20129 116.865833,108.770817 116.865833,111.722541 C116.865833,115.924486 120.313093,119.363151 124.524427,119.363151 L150.146534,119.363151 C154.358984,119.363151 157.805128,115.924486 157.805128,111.722541 C157.805128,108.605903 155.906119,105.912692 153.207291,104.728213 C152.609661,101.978173 150.158822,99.9167575 147.223177,99.9167575 Z" id="Fill-11" fill="#FFFFFF"></path>
            <path d="M122.719362,104.877304 C122.720479,104.895132 122.720479,104.912961 122.720479,104.930789 C122.720479,105.557014 122.370838,106.130867 121.812306,106.416123 C119.794887,107.452402 118.541541,109.485961 118.541541,111.723432 C118.541541,115.013898 121.225847,117.69151 124.524538,117.69151 L150.146646,117.69151 C153.445337,117.69151 156.129643,115.013898 156.129643,111.723432 C156.129643,109.362276 154.718791,107.217289 152.531579,106.257895 C152.041187,106.042839 151.683727,105.604928 151.569786,105.082331 C151.129663,103.057686 149.302145,101.587953 147.223288,101.587953 C146.89152,101.587953 146.558635,101.628067 146.203408,101.710523 C145.360025,101.906637 144.504353,101.428611 144.23179,100.606273 C143.32585,97.8696045 140.778943,96.0321588 137.892449,96.0321588 C135.157875,96.0321588 132.727143,97.6690344 131.701677,100.202904 C131.52183,100.647502 131.159901,100.994042 130.706373,101.153384 C130.250611,101.31384 129.7524,101.271498 129.333501,101.037499 C128.662145,100.66533 127.934936,100.477017 127.169747,100.477017 C124.728961,100.477017 122.741703,102.447062 122.719362,104.877304 M150.146646,121.034346 L124.524538,121.034346 C119.378222,121.034346 115.190348,116.856915 115.190348,111.723432 C115.190348,108.554424 116.792218,105.651727 119.430724,103.935738 C119.914413,100.105962 123.201934,97.1341805 127.169747,97.1341805 C127.909244,97.1341805 128.646506,97.240037 129.353608,97.4461786 C131.157667,94.5111683 134.354706,92.6893225 137.892449,92.6893225 C141.750789,92.6893225 145.20587,94.8755375 146.878115,98.2529164 C150.391283,98.0813175 153.534702,100.329932 154.621606,103.56134 C157.598583,105.190416 159.480837,108.311511 159.480837,111.723432 C159.480837,116.856915 155.292962,121.034346 150.146646,121.034346" id="Fill-13" fill="#000000"></path>
            <path d="M219.569075,349.410349 C219.569075,351.515221 189.146941,353.221182 151.618043,353.221182 C114.090262,353.221182 83.6681287,351.515221 83.6681287,349.410349 C83.6681287,347.305476 114.090262,345.599515 151.618043,345.599515 C189.146941,345.599515 219.569075,347.305476 219.569075,349.410349" id="Fill-17" fill="#09AA8B"></path>
            <path d="M131.197658,193.482077 C131.197658,213.876722 114.622655,230.41039 94.1770244,230.41039 C73.7313934,230.41039 57.1563908,213.876722 57.1563908,193.482077 C57.1563908,173.086319 73.7313934,156.553765 94.1770244,156.553765 C114.622655,156.553765 131.197658,173.086319 131.197658,193.482077" id="Fill-753" fill="#09CFAC"></path>
            <path d="M94.1774712,158.225071 C74.6880474,158.225071 58.8313173,174.041144 58.8313173,193.481966 C58.8313173,212.922788 74.6880474,228.738861 94.1774712,228.738861 C113.665778,228.738861 129.522508,212.922788 129.522508,193.481966 C129.522508,174.041144 113.665778,158.225071 94.1774712,158.225071 M94.1774712,232.081697 C72.8393057,232.081697 55.4801239,214.765805 55.4801239,193.481966 C55.4801239,172.198127 72.8393057,154.882235 94.1774712,154.882235 C115.51452,154.882235 132.873701,172.198127 132.873701,193.481966 C132.873701,214.765805 115.51452,232.081697 94.1774712,232.081697" id="Fill-754" fill="#000000"></path>
            <path d="M94.1774712,220.35759 L94.1774712,264.261288" id="Fill-755" fill="#09CFAC"></path>
            <polygon id="Fill-756" fill="#000000" points="92.5018745 264.261511 95.8530679 264.261511 95.8530679 220.357813 92.5018745 220.357813"></polygon>
            <path d="M174.342151,227.132405 C174.342151,243.142362 161.331701,256.120367 145.281718,256.120367 C129.231736,256.120367 116.222403,243.142362 116.222403,227.132405 C116.222403,211.123562 129.231736,198.144443 145.281718,198.144443 C161.331701,198.144443 174.342151,211.123562 174.342151,227.132405" id="Fill-757" fill="#09CFAC"></path>
            <path d="M145.282054,199.816306 C130.181576,199.816306 117.897218,212.07003 117.897218,227.132851 C117.897218,242.194557 130.181576,254.44828 145.282054,254.44828 C160.382531,254.44828 172.666889,242.194557 172.666889,227.132851 C172.666889,212.07003 160.382531,199.816306 145.282054,199.816306 M145.282054,257.791117 C128.333951,257.791117 114.546025,244.037574 114.546025,227.132851 C114.546025,210.227013 128.333951,196.47347 145.282054,196.47347 C162.230156,196.47347 176.018082,210.227013 176.018082,227.132851 C176.018082,244.037574 162.230156,257.791117 145.282054,257.791117" id="Fill-758" fill="#000000"></path>
            <path d="M145.282054,248.229156 L145.282054,282.69157" id="Fill-759" fill="#09CFAC"></path>
            <polygon id="Fill-760" fill="#000000" points="143.606457 282.691682 146.95765 282.691682 146.95765 248.229268 143.606457 248.229268"></polygon>
            <path d="M681.958475,338.052171 C681.569736,336.634808 681.345206,335.150589 681.345206,333.609541 C681.345206,325.000624 687.820829,317.913811 696.175354,316.896474 C699.242813,312.646615 704.230506,309.869832 709.880618,309.869832 C717.761508,309.869832 724.361125,315.259599 726.228857,322.539182 C730.644612,324.2886 733.771276,328.580801 733.771276,333.609541 C733.771276,335.180674 733.459615,336.678265 732.903317,338.052171 L681.958475,338.052171 Z" id="Fill-761" fill="#09CFAC"></path>
            <path d="M683.288228,336.380753 L731.709622,336.380753 C731.96543,335.478187 732.095009,334.548878 732.095009,333.609541 C732.095009,329.389768 729.549219,325.653591 725.61045,324.092486 L724.817334,323.77826 L724.605092,322.953694 C722.881461,316.234593 716.825855,311.54125 709.881065,311.54125 C705.011781,311.54125 700.396071,313.907978 697.534151,317.873697 L697.106316,318.466493 L696.37799,318.555635 C688.762961,319.482715 683.02125,325.954446 683.02125,333.609541 C683.02125,334.521021 683.110615,335.449216 683.288228,336.380753 L683.288228,336.380753 Z M734.03535,339.723589 L680.678766,339.723589 L680.341412,338.493425 C679.895703,336.86435 679.670056,335.220789 679.670056,333.609541 C679.670056,324.510341 686.318824,316.780589 695.251989,315.338712 C698.764039,310.854855 704.178451,308.198414 709.881065,308.198414 C718.079201,308.198414 725.259691,313.554752 727.626751,321.322389 C732.405553,323.559861 735.446202,328.294432 735.446202,333.609541 C735.446202,335.347816 735.114434,337.053777 734.458717,338.677281 L734.03535,339.723589 Z" id="Fill-762" fill="#000000"></path>
            <path d="M701.982749,346.966401 C702.559154,344.862643 702.892039,342.659714 702.892039,340.373214 C702.892039,327.598007 693.283051,317.08033 680.884752,315.571597 C676.333832,309.265893 668.929928,305.14529 660.54636,305.14529 C648.851812,305.14529 639.058507,313.143583 636.28707,323.946516 C629.733253,326.542785 625.092967,332.910889 625.092967,340.373214 C625.092967,342.706513 625.557666,344.927271 626.379826,346.966401 L701.982749,346.966401 Z" id="Fill-763" fill="#09CFAC"></path>
            <path d="M627.552855,345.294983 L700.67031,345.294983 C701.033356,343.643622 701.216554,341.992261 701.216554,340.373214 C701.216554,328.604201 692.388394,318.654806 680.682675,317.230758 L679.953232,317.141615 L679.524279,316.547705 C675.127514,310.453714 668.03192,306.816708 660.546471,306.816708 C649.868452,306.816708 640.561071,314.030549 637.910277,324.361028 L637.699152,325.185594 L636.906036,325.499821 C630.747659,327.938977 626.768676,333.777798 626.768676,340.373214 C626.768676,342.04686 627.032303,343.697107 627.552855,345.294983 L627.552855,345.294983 Z M703.261899,348.637819 L625.248351,348.637819 L624.826101,347.590397 C623.891118,345.272697 623.417482,342.845798 623.417482,340.373214 C623.417482,332.683576 627.891326,325.844133 634.885266,322.723038 C638.183958,311.347366 648.61734,303.473872 660.546471,303.473872 C668.864133,303.473872 676.759545,307.399476 681.809793,314.010492 C694.834765,315.95268 704.567748,327.160096 704.567748,340.373214 C704.567748,342.692028 704.241565,345.058756 703.599253,347.407655 L703.261899,348.637819 Z" id="Fill-764" fill="#000000"></path>
            <path d="M129.732628,306.955659 L129.732628,323.297671" id="Fill-768" fill="#FFF5CA"></path>
            <path d="M129.732628,324.969201 C128.807699,324.969201 128.057031,324.220406 128.057031,323.297783 L128.057031,306.95577 C128.057031,306.033148 128.807699,305.284352 129.732628,305.284352 C130.657557,305.284352 131.408225,306.033148 131.408225,306.95577 L131.408225,323.297783 C131.408225,324.220406 130.657557,324.969201 129.732628,324.969201" id="Fill-769" fill="#000000"></path>
            <path d="M175.608678,306.955659 L175.608678,323.297671" id="Fill-770" fill="#FFF5CA"></path>
            <path d="M175.608678,324.969201 C174.683749,324.969201 173.933082,324.220406 173.933082,323.297783 L173.933082,306.95577 C173.933082,306.033148 174.683749,305.284352 175.608678,305.284352 C176.533608,305.284352 177.284275,306.033148 177.284275,306.95577 L177.284275,323.297783 C177.284275,324.220406 176.533608,324.969201 175.608678,324.969201" id="Fill-771" fill="#000000"></path>
            <path d="M97.6442808,326.610088 L97.6442808,348.264982" id="Fill-772" fill="#FFF5CA"></path>
            <path d="M97.6442808,349.935954 C96.7193514,349.935954 95.9686841,349.187159 95.9686841,348.264536 L95.9686841,326.609642 C95.9686841,325.687019 96.7193514,324.938224 97.6442808,324.938224 C98.5692102,324.938224 99.3198775,325.687019 99.3198775,326.609642 L99.3198775,348.264536 C99.3198775,349.187159 98.5692102,349.935954 97.6442808,349.935954" id="Fill-773" fill="#000000"></path>
            <path d="M207.696914,326.610088 L207.696914,348.264982" id="Fill-774" fill="#FFF5CA"></path>
            <path d="M207.696914,349.935954 C206.771984,349.935954 206.021317,349.187159 206.021317,348.264536 L206.021317,326.609642 C206.021317,325.687019 206.771984,324.938224 207.696914,324.938224 C208.621843,324.938224 209.37251,325.687019 209.37251,326.609642 L209.37251,348.264536 C209.37251,349.187159 208.621843,349.935954 207.696914,349.935954" id="Fill-775" fill="#000000"></path>
            <polygon id="Fill-776" fill="#FFF5CA" points="86.549038 315.606362 218.821759 315.606362 218.821759 303.150954 86.549038 303.150954"></polygon>
            <path d="M88.2246347,313.934944 L217.146162,313.934944 L217.146162,304.822372 L88.2246347,304.822372 L88.2246347,313.934944 Z M218.821759,317.27778 L86.549038,317.27778 C85.6241086,317.27778 84.8734413,316.528985 84.8734413,315.606362 L84.8734413,303.150954 C84.8734413,302.228331 85.6241086,301.479536 86.549038,301.479536 L218.821759,301.479536 C219.746688,301.479536 220.497355,302.228331 220.497355,303.150954 L220.497355,315.606362 C220.497355,316.528985 219.746688,317.27778 218.821759,317.27778 L218.821759,317.27778 Z" id="Fill-777" fill="#000000"></path>
            <polygon id="Fill-778" fill="#FFF5CA" points="86.549038 329.724274 218.821759 329.724274 218.821759 323.49657 86.549038 323.49657"></polygon>
            <path d="M88.2246347,328.052856 L217.146162,328.052856 L217.146162,325.167988 L88.2246347,325.167988 L88.2246347,328.052856 Z M218.821759,331.395692 L86.549038,331.395692 C85.6241086,331.395692 84.8734413,330.646897 84.8734413,329.724274 L84.8734413,323.49657 C84.8734413,322.573947 85.6241086,321.825152 86.549038,321.825152 L218.821759,321.825152 C219.746688,321.825152 220.497355,322.573947 220.497355,323.49657 L220.497355,329.724274 C220.497355,330.646897 219.746688,331.395692 218.821759,331.395692 L218.821759,331.395692 Z" id="Fill-779" fill="#000000"></path>
            <g id="Group-7" transform="translate(610.000000, 45.807357)">
                <mask id="mask-2" fill="white">
                    <use xlink:href="#path-1"></use>
                </mask>
                <g id="Mask"></g>
                <g mask="url(#mask-2)">
                    <g transform="translate(42.000000, 51.870324)">
                        <path d="M2.23796136,104.313252 L2.23796136,31.3045927 C2.23796136,24.9208897 7.47364253,19.6993793 13.8710707,19.6993793 L75.4291424,19.6993793 C81.8276877,19.6993793 87.0633688,24.9208897 87.0633688,31.3045927 L87.0633688,104.313252 L2.23796136,104.313252 Z" id="Fill-604" fill="#E0D7F9"></path>
                        <path d="M3.91355806,102.641834 L85.3877721,102.641834 L85.3877721,31.3045927 C85.3877721,25.8267983 80.9206313,21.3707975 75.4291424,21.3707975 L13.8710707,21.3707975 C8.38069887,21.3707975 3.91355806,25.8267983 3.91355806,31.3045927 L3.91355806,102.641834 Z M88.7389655,105.98467 L0.562364659,105.98467 L0.562364659,31.3045927 C0.562364659,23.9837812 6.53307424,18.0279612 13.8710707,18.0279612 L75.4291424,18.0279612 C82.768256,18.0279612 88.7389655,23.9837812 88.7389655,31.3045927 L88.7389655,105.98467 Z" id="Fill-606" fill="#000000"></path>
                        <path d="M2.17909206,31.7871869 L2.17909206,21.6338787 C2.17909206,15.2512899 7.41477323,10.0297796 13.8122014,10.0297796 L75.3702731,10.0297796 C81.7688184,10.0297796 87.0044995,15.2512899 87.0044995,21.6338787 L87.0044995,31.7871869 L2.17909206,31.7871869 Z" id="Fill-608" fill="#AA8CEA"></path>
                        <path d="M3.85468877,30.1157687 L85.3289028,30.1157687 L85.3289028,21.6338787 C85.3289028,16.1571985 80.861762,11.7011977 75.3702731,11.7011977 L13.8122014,11.7011977 C8.32182958,11.7011977 3.85468877,16.1571985 3.85468877,21.6338787 L3.85468877,30.1157687 Z M88.6800962,33.458605 L0.503495362,33.458605 L0.503495362,21.6338787 C0.503495362,14.3130672 6.47420495,8.35836142 13.8122014,8.35836142 L75.3702731,8.35836142 C82.7093867,8.35836142 88.6800962,14.3130672 88.6800962,21.6338787 L88.6800962,33.458605 Z" id="Fill-610" fill="#000000"></path>
                        <g id="Group-615" opacity="0.24" stroke-width="1" fill="none" transform="translate(10.419230, 39.004482)">
                            <polygon id="Fill-612" fill="#FFFFFF" points="2.06992046 13.1239754 12.2486119 13.1239754 12.2486119 1.97004487 2.06992046 1.97004487"></polygon>
                            <path d="M3.74551716,11.4525572 L10.5730152,11.4525572 L10.5730152,3.64146303 L3.74551716,3.64146303 L3.74551716,11.4525572 Z M12.2486119,14.7953935 L2.06992046,14.7953935 C1.14499108,14.7953935 0.394323757,14.0465982 0.394323757,13.1239754 L0.394323757,1.97004487 C0.394323757,1.04630777 1.14499108,0.298626711 2.06992046,0.298626711 L12.2486119,0.298626711 C13.1735413,0.298626711 13.9242086,1.04630777 13.9242086,1.97004487 L13.9242086,13.1239754 C13.9242086,14.0465982 13.1735413,14.7953935 12.2486119,14.7953935 L12.2486119,14.7953935 Z" id="Fill-614" fill="#AA8CEA"></path>
                        </g>
                        <g id="Group-619" opacity="0.24" stroke-width="1" fill="none" transform="translate(64.038324, 39.004482)">
                            <polygon id="Fill-616" fill="#FFFFFF" points="1.81634683 13.1239754 11.9950383 13.1239754 11.9950383 1.97004487 1.81634683 1.97004487"></polygon>
                            <path d="M3.49082646,11.4525572 L10.3183245,11.4525572 L10.3183245,3.64146303 L3.49082646,3.64146303 L3.49082646,11.4525572 Z M11.9950383,14.7953935 L1.81522976,14.7953935 C0.890300381,14.7953935 0.139633059,14.0465982 0.139633059,13.1239754 L0.139633059,1.97004487 C0.139633059,1.04630777 0.890300381,0.298626711 1.81522976,0.298626711 L11.9950383,0.298626711 C12.9199676,0.298626711 13.670635,1.04630777 13.670635,1.97004487 L13.670635,13.1239754 C13.670635,14.0465982 12.9199676,14.7953935 11.9950383,14.7953935 L11.9950383,14.7953935 Z" id="Fill-618" fill="#AA8CEA"></path>
                        </g>
                        <g id="Group-623" opacity="0.24" stroke-width="1" fill="none" transform="translate(10.419230, 70.204288)">
                            <polygon id="Fill-620" fill="#FFFFFF" points="2.06992046 13.7268002 12.2486119 13.7268002 12.2486119 2.57286968 2.06992046 2.57286968"></polygon>
                            <path d="M3.74551716,12.055382 L10.5730152,12.055382 L10.5730152,4.24428784 L3.74551716,4.24428784 L3.74551716,12.055382 Z M12.2486119,15.3982183 L2.06992046,15.3982183 C1.14499108,15.3982183 0.394323757,14.649423 0.394323757,13.7268002 L0.394323757,2.57286968 C0.394323757,1.64913258 1.14499108,0.901451526 2.06992046,0.901451526 L12.2486119,0.901451526 C13.1735413,0.901451526 13.9242086,1.64913258 13.9242086,2.57286968 L13.9242086,13.7268002 C13.9242086,14.649423 13.1735413,15.3982183 12.2486119,15.3982183 L12.2486119,15.3982183 Z" id="Fill-622" fill="#AA8CEA"></path>
                        </g>
                        <g id="Group-627" opacity="0.24" stroke-width="1" fill="none" transform="translate(46.165293, 54.604385)">
                            <polygon id="Fill-624" fill="#FFFFFF" points="1.90124373 13.4192592 12.0799352 13.4192592 12.0799352 2.26532874 1.90124373 2.26532874"></polygon>
                            <path d="M3.57684043,11.7478411 L10.4043385,11.7478411 L10.4043385,3.9367469 L3.57684043,3.9367469 L3.57684043,11.7478411 Z M12.0799352,15.0906774 L1.90124373,15.0906774 C0.975197281,15.0906774 0.225647023,14.3429963 0.225647023,13.4192592 L0.225647023,2.26532874 C0.225647023,1.34159164 0.975197281,0.593910585 1.90124373,0.593910585 L12.0799352,0.593910585 C13.0048645,0.593910585 13.7555319,1.34159164 13.7555319,2.26532874 L13.7555319,13.4192592 C13.7555319,14.3429963 13.0048645,15.0906774 12.0799352,15.0906774 L12.0799352,15.0906774 Z" id="Fill-626" fill="#AA8CEA"></path>
                        </g>
                        <g id="Group-631" opacity="0.24" stroke-width="1" fill="none" transform="translate(28.292261, 54.604385)">
                            <polygon id="Fill-628" fill="#FFFFFF" points="1.98614063 13.4192592 12.1648321 13.4192592 12.1648321 2.26532874 1.98614063 2.26532874"></polygon>
                            <path d="M3.66173733,11.7478411 L10.4892354,11.7478411 L10.4892354,3.9367469 L3.66173733,3.9367469 L3.66173733,11.7478411 Z M12.1648321,15.0906774 L1.98614063,15.0906774 C1.06121125,15.0906774 0.310543922,14.3429963 0.310543922,13.4192592 L0.310543922,2.26532874 C0.310543922,1.34159164 1.06121125,0.593910585 1.98614063,0.593910585 L12.1648321,0.593910585 C13.0897614,0.593910585 13.8404288,1.34159164 13.8404288,2.26532874 L13.8404288,13.4192592 C13.8404288,14.3429963 13.0897614,15.0906774 12.1648321,15.0906774 L12.1648321,15.0906774 Z" id="Fill-630" fill="#AA8CEA"></path>
                        </g>
                        <g id="Group-635" opacity="0.24" stroke-width="1" fill="none" transform="translate(28.292261, 39.004482)">
                            <polygon id="Fill-632" fill="#FFFFFF" points="1.98614063 13.1239754 12.1648321 13.1239754 12.1648321 1.97004487 1.98614063 1.97004487"></polygon>
                            <path d="M3.66173733,11.4525572 L10.4892354,11.4525572 L10.4892354,3.64146303 L3.66173733,3.64146303 L3.66173733,11.4525572 Z M12.1648321,14.7953935 L1.98614063,14.7953935 C1.06121125,14.7953935 0.310543922,14.0465982 0.310543922,13.1239754 L0.310543922,1.97004487 C0.310543922,1.04630777 1.06121125,0.298626711 1.98614063,0.298626711 L12.1648321,0.298626711 C13.0897614,0.298626711 13.8404288,1.04630777 13.8404288,1.97004487 L13.8404288,13.1239754 C13.8404288,14.0465982 13.0897614,14.7953935 12.1648321,14.7953935 L12.1648321,14.7953935 Z" id="Fill-634" fill="#AA8CEA"></path>
                        </g>
                        <g id="Group-639" opacity="0.24" stroke-width="1" fill="none" transform="translate(64.038324, 70.204288)">
                            <polygon id="Fill-636" fill="#FFFFFF" points="1.81634683 13.7268002 11.9950383 13.7268002 11.9950383 2.57286968 1.81634683 2.57286968"></polygon>
                            <path d="M3.49082646,12.055382 L10.3183245,12.055382 L10.3183245,4.24428784 L3.49082646,4.24428784 L3.49082646,12.055382 Z M11.9950383,15.3982183 L1.81522976,15.3982183 C0.890300381,15.3982183 0.139633059,14.649423 0.139633059,13.7268002 L0.139633059,2.57286968 C0.139633059,1.64913258 0.890300381,0.901451526 1.81522976,0.901451526 L11.9950383,0.901451526 C12.9199676,0.901451526 13.670635,1.64913258 13.670635,2.57286968 L13.670635,13.7268002 C13.670635,14.649423 12.9199676,15.3982183 11.9950383,15.3982183 L11.9950383,15.3982183 Z" id="Fill-638" fill="#AA8CEA"></path>
                        </g>
                        <g id="Group-644" opacity="0.24" stroke-width="1" fill="none" transform="translate(67.389518, 92.373090)">
                            <path d="M1.90951,1.70606835 L3.84761686,1.70606835" id="Fill-640" fill="#FFFFFF"></path>
                            <path d="M3.84795197,3.37748651 L1.90984512,3.37748651 C0.984915742,3.37748651 0.234248419,2.62980545 0.234248419,1.70606835 C0.234248419,0.782331247 0.984915742,0.0346501917 1.90984512,0.0346501917 L3.84795197,0.0346501917 C4.77288135,0.0346501917 5.52354868,0.782331247 5.52354868,1.70606835 C5.52354868,2.62980545 4.77288135,3.37748651 3.84795197,3.37748651" id="Fill-642" fill="#AA8CEA"></path>
                        </g>
                        <g id="Group-649" opacity="0.24" stroke-width="1" fill="none" transform="translate(71.857776, 92.373090)">
                            <path d="M2.28797144,1.70606835 L4.22719536,1.70606835" id="Fill-645" fill="#FFFFFF"></path>
                            <path d="M4.22753048,3.37748651 L2.28830656,3.37748651 C1.36337718,3.37748651 0.612709861,2.62980545 0.612709861,1.70606835 C0.612709861,0.782331247 1.36337718,0.0346501917 2.28830656,0.0346501917 L4.22753048,0.0346501917 C5.15245986,0.0346501917 5.90312718,0.782331247 5.90312718,1.70606835 C5.90312718,2.62980545 5.15245986,3.37748651 4.22753048,3.37748651" id="Fill-647" fill="#AA8CEA"></path>
                        </g>
                        <g id="Group-654" opacity="0.24" stroke-width="1" fill="none" transform="translate(69.623647, 94.718420)">
                            <path d="M2.58365841,2.04035586 L4.52176526,2.04035586" id="Fill-650" fill="#FFFFFF"></path>
                            <path d="M4.52210038,3.71177402 L2.58399353,3.71177402 C1.65906415,3.71177402 0.908396826,2.96409296 0.908396826,2.04035586 C0.908396826,1.11661876 1.65906415,0.368937701 2.58399353,0.368937701 L4.52210038,0.368937701 C5.44702976,0.368937701 6.19769708,1.11661876 6.19769708,2.04035586 C6.19769708,2.96409296 5.44702976,3.71177402 4.52210038,3.71177402" id="Fill-652" fill="#AA8CEA"></path>
                        </g>
                        <g id="Group-659" opacity="0.24" stroke-width="1" fill="none" transform="translate(75.208969, 94.718420)">
                            <path d="M1.84505538,2.04035586 L3.7842793,2.04035586" id="Fill-655" fill="#FFFFFF"></path>
                            <path d="M3.78472613,3.71177402 L1.84550221,3.71177402 C0.920572828,3.71177402 0.169905506,2.96409296 0.169905506,2.04035586 C0.169905506,1.11661876 0.920572828,0.368937701 1.84550221,0.368937701 L3.78472613,0.368937701 C4.70965551,0.368937701 5.46032283,1.11661876 5.46032283,2.04035586 C5.46032283,2.96409296 4.70965551,3.71177402 3.78472613,3.71177402" id="Fill-657" fill="#AA8CEA"></path>
                        </g>
                        <path d="M119.612728,54.1495361 L119.612728,17.6446493 C119.612728,14.4533549 122.231128,11.8425997 125.429283,11.8425997 L136.81999,11.8425997 C140.020379,11.8425997 142.636544,14.4533549 142.636544,17.6446493 L142.636544,54.1495361 L119.612728,54.1495361 Z" id="Fill-660" fill="#E1F8FD"></path>
                        <path d="M121.288325,52.478118 L140.960948,52.478118 L140.960948,17.6446493 C140.960948,15.3670635 139.103269,13.5140179 136.81999,13.5140179 L125.429283,13.5140179 C123.146003,13.5140179 121.288325,15.3670635 121.288325,17.6446493 L121.288325,52.478118 Z M144.312141,55.8209543 L117.937132,55.8209543 L117.937132,17.6446493 C117.937132,13.5240464 121.298379,10.1711816 125.429283,10.1711816 L136.81999,10.1711816 C140.952011,10.1711816 144.312141,13.5240464 144.312141,17.6446493 L144.312141,55.8209543 Z" id="Fill-662" fill="#000000"></path>
                        <path d="M109.919066,104.313252 L109.919066,38.7981175 C109.919066,35.6068231 112.536348,32.9960679 115.735621,32.9960679 L146.515215,32.9960679 C149.713371,32.9960679 152.33177,35.6068231 152.33177,38.7981175 L152.33177,104.313252 L109.919066,104.313252 Z" id="Fill-664" fill="#E1F8FD"></path>
                        <path d="M111.594663,102.641834 L150.656173,102.641834 L150.656173,38.7981175 C150.656173,36.5205317 148.798495,34.6674861 146.515215,34.6674861 L115.735621,34.6674861 C113.452341,34.6674861 111.594663,36.5205317 111.594663,38.7981175 L111.594663,102.641834 Z M154.007367,105.98467 L108.24347,105.98467 L108.24347,38.7981175 C108.24347,34.6775146 111.604717,31.3246498 115.735621,31.3246498 L146.515215,31.3246498 C150.64612,31.3246498 154.007367,34.6775146 154.007367,38.7981175 L154.007367,105.98467 Z" id="Fill-666" fill="#000000"></path>
                        <path d="M86.8949155,104.313252 L86.8949155,67.8083653 C86.8949155,64.6170709 89.5121976,62.0063157 92.7114702,62.0063157 L109.918731,62.0063157 L109.918731,104.313252 L86.8949155,104.313252 Z" id="Fill-668" fill="#E1F8FD"></path>
                        <path d="M88.5705122,102.641834 L108.243135,102.641834 L108.243135,63.6777339 L92.7114702,63.6777339 C90.4281904,63.6777339 88.5705122,65.5307795 88.5705122,67.8083653 L88.5705122,102.641834 Z M111.594328,105.98467 L85.2193188,105.98467 L85.2193188,67.8083653 C85.2193188,63.6877624 88.5805658,60.3348976 92.7114702,60.3348976 L111.594328,60.3348976 L111.594328,105.98467 Z" id="Fill-670" fill="#000000"></path>
                        <polygon id="Fill-672" fill="#6F9CB2" points="103.675123 103.346281 109.919513 103.346281 109.919513 62.1803661 103.675123 62.1803661"></polygon>
                        <path d="M88.5705122,102.641834 L108.243135,102.641834 L108.243135,63.6777339 L92.7114702,63.6777339 C90.4281904,63.6777339 88.5705122,65.5307795 88.5705122,67.8083653 L88.5705122,102.641834 Z M111.594328,105.98467 L85.2193188,105.98467 L85.2193188,67.8083653 C85.2193188,63.6877624 88.5805658,60.3348976 92.7114702,60.3348976 L111.594328,60.3348976 L111.594328,105.98467 Z" id="Fill-674" fill="#000000"></path>
                        <path d="M131.124748,11.8428226 L131.124748,1.97142693" id="Fill-687" fill="#FFFFFF"></path>
                        <path d="M131.124748,13.5142407 C130.199819,13.5142407 129.449151,12.7665597 129.449151,11.8428226 L129.449151,1.97142693 C129.449151,1.04768983 130.199819,0.300008775 131.124748,0.300008775 C132.049677,0.300008775 132.800345,1.04768983 132.800345,1.97142693 L132.800345,11.8428226 C132.800345,12.7665597 132.049677,13.5142407 131.124748,13.5142407" id="Fill-689" fill="#000000"></path>
                        <g id="Group-698" opacity="0.24" stroke-width="1" fill="none" transform="translate(114.306225, 41.233039)">
                            <polygon id="Fill-695" fill="#FFFFFF" points="1.79177141 13.2175748 6.88223419 13.2175748 6.88223419 2.06364428 1.79177141 2.06364428"></polygon>
                            <path d="M3.46848517,11.5461566 L5.20775455,11.5461566 L5.20775455,3.73506244 L3.46848517,3.73506244 L3.46848517,11.5461566 Z M6.88223419,14.8889929 L1.79288847,14.8889929 C0.867959092,14.8889929 0.117291769,14.1401976 0.117291769,13.2175748 L0.117291769,2.06364428 C0.117291769,1.13990718 0.867959092,0.392226128 1.79288847,0.392226128 L6.88223419,0.392226128 C7.80828063,0.392226128 8.55783089,1.13990718 8.55783089,2.06364428 L8.55783089,13.2175748 C8.55783089,14.1401976 7.80828063,14.8889929 6.88223419,14.8889929 L6.88223419,14.8889929 Z" id="Fill-697" fill="#6F9CB2"></path>
                        </g>
                        <g id="Group-702" opacity="0.24" stroke-width="1" fill="none" transform="translate(138.881644, 41.233039)">
                            <polygon id="Fill-699" fill="#FFFFFF" points="2.01295017 13.2175748 7.10341296 13.2175748 7.10341296 2.06364428 2.01295017 2.06364428"></polygon>
                            <path d="M3.68854687,11.5461566 L5.42781625,11.5461566 L5.42781625,3.73506244 L3.68854687,3.73506244 L3.68854687,11.5461566 Z M7.10341296,14.8889929 L2.01295017,14.8889929 C1.08802079,14.8889929 0.337353469,14.1401976 0.337353469,13.2175748 L0.337353469,2.06364428 C0.337353469,1.13990718 1.08802079,0.392226128 2.01295017,0.392226128 L7.10341296,0.392226128 C8.02834234,0.392226128 8.77900966,1.13990718 8.77900966,2.06364428 L8.77900966,13.2175748 C8.77900966,14.1401976 8.02834234,14.8889929 7.10341296,14.8889929 L7.10341296,14.8889929 Z" id="Fill-701" fill="#6F9CB2"></path>
                        </g>
                        <g id="Group-706" opacity="0.24" stroke-width="1" fill="none" transform="translate(114.306225, 58.944727)">
                            <polygon id="Fill-703" fill="#FFFFFF" points="1.79177141 12.9120357 6.88223419 12.9120357 6.88223419 1.75810517 1.79177141 1.75810517"></polygon>
                            <path d="M3.46848517,11.2406175 L5.20775455,11.2406175 L5.20775455,3.42952333 L3.46848517,3.42952333 L3.46848517,11.2406175 Z M6.88223419,14.5834538 L1.79288847,14.5834538 C0.867959092,14.5834538 0.117291769,13.8357728 0.117291769,12.9120357 L0.117291769,1.75810517 C0.117291769,0.834368066 0.867959092,0.0866870103 1.79288847,0.0866870103 L6.88223419,0.0866870103 C7.80828063,0.0866870103 8.55783089,0.834368066 8.55783089,1.75810517 L8.55783089,12.9120357 C8.55783089,13.8357728 7.80828063,14.5834538 6.88223419,14.5834538 L6.88223419,14.5834538 Z" id="Fill-705" fill="#6F9CB2"></path>
                        </g>
                        <g id="Group-710" opacity="0.24" stroke-width="1" fill="none" transform="translate(126.593935, 58.944727)">
                            <polygon id="Fill-707" fill="#FFFFFF" points="1.90236079 12.9120357 6.99282357 12.9120357 6.99282357 1.75810517 1.90236079 1.75810517"></polygon>
                            <path d="M3.57795749,11.2406175 L5.31722687,11.2406175 L5.31722687,3.42952333 L3.57795749,3.42952333 L3.57795749,11.2406175 Z M6.99282357,14.5834538 L1.90236079,14.5834538 C0.97743141,14.5834538 0.226764087,13.8357728 0.226764087,12.9120357 L0.226764087,1.75810517 C0.226764087,0.834368066 0.97743141,0.0866870103 1.90236079,0.0866870103 L6.99282357,0.0866870103 C7.91775295,0.0866870103 8.66842028,0.834368066 8.66842028,1.75810517 L8.66842028,12.9120357 C8.66842028,13.8357728 7.91775295,14.5834538 6.99282357,14.5834538 L6.99282357,14.5834538 Z" id="Fill-709" fill="#6F9CB2"></path>
                        </g>
                        <g id="Group-714" opacity="0.24" stroke-width="1" fill="none" transform="translate(126.593935, 15.604628)">
                            <polygon id="Fill-711" fill="#FFFFFF" points="1.90236079 13.2198033 6.99282357 13.2198033 6.99282357 2.06587284 1.90236079 2.06587284"></polygon>
                            <path d="M3.57795749,11.5483852 L5.31722687,11.5483852 L5.31722687,3.737291 L3.57795749,3.737291 L3.57795749,11.5483852 Z M6.99282357,14.8912215 L1.90236079,14.8912215 C0.97743141,14.8912215 0.226764087,14.1435404 0.226764087,13.2198033 L0.226764087,2.06587284 C0.226764087,1.14213574 0.97743141,0.394454685 1.90236079,0.394454685 L6.99282357,0.394454685 C7.91775295,0.394454685 8.66842028,1.14213574 8.66842028,2.06587284 L8.66842028,13.2198033 C8.66842028,14.1435404 7.91775295,14.8912215 6.99282357,14.8912215 L6.99282357,14.8912215 Z" id="Fill-713" fill="#6F9CB2"></path>
                        </g>
                        <g id="Group-718" opacity="0.24" stroke-width="1" fill="none" transform="translate(126.593935, 74.661403)">
                            <polygon id="Fill-715" fill="#FFFFFF" points="1.90236079 13.634315 6.99282357 13.634315 6.99282357 2.48038455 1.90236079 2.48038455"></polygon>
                            <path d="M3.57795749,11.9628969 L5.31722687,11.9628969 L5.31722687,4.1518027 L3.57795749,4.1518027 L3.57795749,11.9628969 Z M6.99282357,15.3057332 L1.90236079,15.3057332 C0.97743141,15.3057332 0.226764087,14.5569379 0.226764087,13.634315 L0.226764087,2.48038455 C0.226764087,1.55664744 0.97743141,0.808966388 1.90236079,0.808966388 L6.99282357,0.808966388 C7.91775295,0.808966388 8.66842028,1.55664744 8.66842028,2.48038455 L8.66842028,13.634315 C8.66842028,14.5569379 7.91775295,15.3057332 6.99282357,15.3057332 L6.99282357,15.3057332 Z" id="Fill-717" fill="#6F9CB2"></path>
                        </g>
                        <path d="M79.2652535,104.313252 L79.2652535,48.4678287 C79.2652535,45.2776485 81.8836526,42.6657791 85.0818082,42.6657791 L115.861403,42.6657791 C119.060675,42.6657791 121.677957,45.2776485 121.677957,48.4678287 L121.677957,104.313252 L79.2652535,104.313252 Z" id="Fill-725" fill="#25CCED"></path>
                        <path d="M80.9408502,102.641834 L120.002361,102.641834 L120.002361,48.4678287 C120.002361,46.1902428 118.144682,44.3371973 115.861403,44.3371973 L85.0818082,44.3371973 C82.7985284,44.3371973 80.9408502,46.1902428 80.9408502,48.4678287 L80.9408502,102.641834 Z M123.353554,105.98467 L77.5896568,105.98467 L77.5896568,48.4678287 C77.5896568,44.3472258 80.9509038,40.9943609 85.0818082,40.9943609 L115.861403,40.9943609 C119.992307,40.9943609 123.353554,44.3472258 123.353554,48.4678287 L123.353554,105.98467 Z" id="Fill-727" fill="#000000"></path>
                        <g id="Group-732" opacity="0.24" stroke-width="1" fill="none" transform="translate(86.379614, 47.918712)">
                            <polygon id="Fill-729" fill="#FFFFFF" points="2.21067058 12.9122624 10.2021498 12.9122624 10.2021498 1.7583319 2.21067058 1.7583319"></polygon>
                            <path d="M3.88626729,11.2408442 L8.52655309,11.2408442 L8.52655309,3.42975006 L3.88626729,3.42975006 L3.88626729,11.2408442 Z M10.2021498,14.5836806 L2.21067058,14.5836806 C1.2857412,14.5836806 0.53507388,13.8359995 0.53507388,12.9122624 L0.53507388,1.7583319 C0.53507388,0.835709079 1.2857412,0.0869137442 2.21067058,0.0869137442 L10.2021498,0.0869137442 C11.1270792,0.0869137442 11.8777465,0.835709079 11.8777465,1.7583319 L11.8777465,12.9122624 C11.8777465,13.8359995 11.1270792,14.5836806 10.2021498,14.5836806 L10.2021498,14.5836806 Z" id="Fill-731" fill="#6F9CB2"></path>
                        </g>
                        <g id="Group-736" opacity="0.24" stroke-width="1" fill="none" transform="translate(102.018516, 47.918712)">
                            <polygon id="Fill-733" fill="#FFFFFF" points="2.47653193 12.9122624 10.4680111 12.9122624 10.4680111 1.7583319 2.47653193 1.7583319"></polygon>
                            <path d="M4.15212863,11.2408442 L8.79241443,11.2408442 L8.79241443,3.42975006 L4.15212863,3.42975006 L4.15212863,11.2408442 Z M10.4680111,14.5836806 L2.47653193,14.5836806 C1.55160255,14.5836806 0.800935224,13.8359995 0.800935224,12.9122624 L0.800935224,1.7583319 C0.800935224,0.835709079 1.55160255,0.0869137442 2.47653193,0.0869137442 L10.4680111,0.0869137442 C11.3940576,0.0869137442 12.1436078,0.835709079 12.1436078,1.7583319 L12.1436078,12.9122624 C12.1436078,13.8359995 11.3940576,14.5836806 10.4680111,14.5836806 L10.4680111,14.5836806 Z" id="Fill-735" fill="#6F9CB2"></path>
                        </g>
                        <g id="Group-740" opacity="0.24" stroke-width="1" fill="none" transform="translate(86.379614, 63.518615)">
                            <polygon id="Fill-737" fill="#FFFFFF" points="2.21067058 13.2086606 10.2021498 13.2086606 10.2021498 2.05473005 2.21067058 2.05473005"></polygon>
                            <path d="M3.88626729,11.5372424 L8.52655309,11.5372424 L8.52655309,3.72614821 L3.88626729,3.72614821 L3.88626729,11.5372424 Z M10.2021498,14.8800787 L2.21067058,14.8800787 C1.2857412,14.8800787 0.53507388,14.1312834 0.53507388,13.2086606 L0.53507388,2.05361578 C0.53507388,1.13099295 1.2857412,0.382197619 2.21067058,0.382197619 L10.2021498,0.382197619 C11.1270792,0.382197619 11.8777465,1.13099295 11.8777465,2.05361578 L11.8777465,13.2086606 C11.8777465,14.1312834 11.1270792,14.8800787 10.2021498,14.8800787 L10.2021498,14.8800787 Z" id="Fill-739" fill="#6F9CB2"></path>
                        </g>
                        <g id="Group-744" opacity="0.24" stroke-width="1" fill="none" transform="translate(102.018516, 79.118518)">
                            <polygon id="Fill-741" fill="#FFFFFF" points="2.47653193 12.8844054 10.4680111 12.8844054 10.4680111 1.73047493 2.47653193 1.73047493"></polygon>
                            <path d="M4.15212863,11.2129873 L8.79241443,11.2129873 L8.79241443,3.40189309 L4.15212863,3.40189309 L4.15212863,11.2129873 Z M10.4680111,14.5558236 L2.47653193,14.5558236 C1.55160255,14.5558236 0.800935224,13.8081425 0.800935224,12.8844054 L0.800935224,1.73047493 C0.800935224,0.807852109 1.55160255,0.0590567749 2.47653193,0.0590567749 L10.4680111,0.0590567749 C11.3940576,0.0590567749 12.1436078,0.807852109 12.1436078,1.73047493 L12.1436078,12.8844054 C12.1436078,13.8081425 11.3940576,14.5558236 10.4680111,14.5558236 L10.4680111,14.5558236 Z" id="Fill-743" fill="#6F9CB2"></path>
                        </g>
                        <path d="M76.011133,104.605416 C76.011133,120.928486 62.7459924,134.16166 46.380998,134.16166 C30.0160035,134.16166 16.7497459,120.928486 16.7497459,104.605416 C16.7497459,88.281232 30.0160035,75.0480573 46.380998,75.0480573 C62.7459924,75.0480573 76.011133,88.281232 76.011133,104.605416" id="Fill-745" fill="#09CFAC"></path>
                        <path d="M46.3805511,76.7196983 C30.9661785,76.7196983 18.4260128,89.2297061 18.4260128,104.605639 C18.4260128,119.981572 30.9661785,132.490465 46.3805511,132.490465 C61.7949237,132.490465 74.3350895,119.981572 74.3350895,104.605639 C74.3350895,89.2297061 61.7949237,76.7196983 46.3805511,76.7196983 M46.3805511,135.833301 C29.1185539,135.833301 15.0748194,121.824589 15.0748194,104.605639 C15.0748194,87.3855747 29.1185539,73.376862 46.3805511,73.376862 C63.6425484,73.376862 77.6862829,87.3855747 77.6862829,104.605639 C77.6862829,121.824589 63.6425484,135.833301 46.3805511,135.833301" id="Fill-747" fill="#000000"></path>
                        <path d="M46.3805511,126.116233 L46.3805511,161.256129" id="Fill-749" fill="#09CFAC"></path>
                        <polygon id="Fill-751" fill="#000000" points="44.7052896 161.255349 48.056483 161.255349 48.056483 126.115453 44.7052896 126.115453"></polygon>
                    </g>
                </g>
            </g>
        </g>
    </g>
</svg>